#!OML:ASF F:\twosubjects\two\wednesday\Session 1\rory1.ASF
:FULLY-SPECIFIED
:DEGREES
455
root 4.76721 17.1183 -24.3177 3.22526 -4.89579 -3.95369
lowerback 8.21333 1.18562 -1.52407
upperback 2.36274 1.48456 1.41873
thorax -2.23454 0.740419 2.17289
lowerneck -8.25933 2.33605 0.48853
upperneck 5.89785 3.20833 -1.79558
head 3.40866 1.52562 -0.497692
rclavicle -1.95306e-014 1.19271e-015
rhumerus -27.5428 2.1878 -79.2779
rradius 44.8003
rwrist -6.45118
rhand -25.5283 43.2189
rfingers 7.12502
rthumb 1.00137 13.2415
lclavicle -1.95306e-014 1.19271e-015
lhumerus -36.6342 1.94616 80.6221
lradius 48.7612
lwrist 13.2152
lhand -25.35 11.8673
lfingers 7.12502
lthumb 1.17355 41.8438
rfemur -28.9683 1.20361 17.0847
rtibia 42.3356
rfoot -22.8807 -11.8875
rtoes -13.7721
lfemur -20.4843 2.23312 -18.3116
ltibia 46.4932
lfoot -26.6585 -1.30011
ltoes -5.33946
456
root 4.7846 17.1008 -24.3444 2.92681 -5.57367 -4.02139
lowerback 8.10074 1.25614 -1.60027
upperback 2.45259 1.57282 1.43193
thorax -2.08607 0.782125 2.22355
lowerneck -8.41008 2.32608 0.42056
upperneck 6.39759 3.2171 -1.85684
head 3.61291 1.52107 -0.501748
rclavicle 4.12478e-015 1.82882e-014
rhumerus -27.4936 2.42143 -79.246
rradius 44.6723
rwrist -5.84375
rhand -26.2332 43.1755
rfingers 7.12502
rthumb 0.320535 13.196
lclavicle 4.12478e-015 1.82882e-014
lhumerus -36.6821 2.19815 80.5797
lradius 48.838
lwrist 13.1954
lhand -25.2024 11.7877
lfingers 7.12502
lthumb 1.31608 41.7633
rfemur -28.5951 0.497718 17.3159
rtibia 43.1012
rfoot -22.8959 -13.1144
rtoes -10.4942
lfemur -20.2957 2.37694 -18.3445
ltibia 46.7818
lfoot -26.9206 -0.692807
ltoes -5.55689
457
root 4.80939 17.0871 -24.3661 2.61497 -6.32395 -4.16843
lowerback 8.02021 1.33092 -1.47744
upperback 2.50369 1.68295 1.46792
thorax -1.99202 0.835338 2.18286
lowerneck -8.58797 2.33756 -0.141723
upperneck 6.98313 3.27445 -1.42817
head 3.83383 1.54808 -0.252394
rclavicle -1.04362e-015 -2.44505e-014
rhumerus -27.3366 2.55941 -79.1105
rradius 44.3586
rwrist -5.45668
rhand -26.4169 43.4072
rfingers 7.12502
rthumb 0.143076 13.4276
lclavicle -1.04362e-015 -2.44505e-014
lhumerus -36.7473 2.49476 80.6254
lradius 48.9849
lwrist 13.3402
lhand -24.962 12.7457
lfingers 7.12502
lthumb 1.54829 42.7198
rfemur -28.2439 -0.137719 17.5531
rtibia 44.0098
rfoot -23.048 -13.9297
rtoes -7.97486
lfemur -20.0551 2.47299 -18.3261
ltibia 47.0411
lfoot -27.2676 0.0596656
ltoes -4.7193
458
root 4.83518 17.0724 -24.3789 2.34315 -7.03392 -4.07726
lowerback 7.84782 1.38734 -1.48899
upperback 2.45831 1.75682 1.38669
thorax -1.94489 0.872216 2.10126
lowerneck -8.41929 2.3331 -0.64725
upperneck 7.4171 3.29908 -1.02215
head 3.93564 1.56184 -0.0263672
rclavicle 1.20265e-014 -2.18663e-015
rhumerus -27.3158 2.72247 -79.0103
rradius 43.9579
rwrist -5.09591
rhand -26.2345 44.089
rfingers 7.12502
rthumb 0.319227 14.1095
lclavicle 1.20265e-014 -2.18663e-015
lhumerus -36.5728 3.02108 80.6216
lradius 48.7044
lwrist 13.4149
lhand -25.1531 13.6581
lfingers 7.12502
lthumb 1.36375 43.6335
rfemur -27.961 -0.956414 17.4926
rtibia 45.0379
rfoot -22.9846 -14.5596
rtoes -6.71722
lfemur -19.8526 2.51763 -18.5806
ltibia 47.3092
lfoot -27.6147 0.690588
ltoes -3.5727
459
root 4.85461 17.0543 -24.3916 2.11622 -7.62749 -3.86894
lowerback 7.65764 1.41181 -1.68465
upperback 2.307 1.77536 1.30154
thorax -1.99962 0.883747 2.12374
lowerneck -7.97852 2.40614 -0.982312
upperneck 7.70509 3.41741 -0.824217
head 3.93954 1.61881 0.101148
rclavicle 5.86415e-015 9.93923e-016
rhumerus -27.5462 3.23838 -78.9423
rradius 43.8068
rwrist -4.79204
rhand -26.3661 44.6378
rfingers 7.12502
rthumb 0.192171 14.6582
lclavicle 5.86415e-015 9.93923e-016
lhumerus -37.6003 3.07539 80.5167
lradius 49.3705
lwrist 13.7549
lhand -25.7941 13.7034
lfingers 7.12502
lthumb 0.744621 43.6818
rfemur -27.6991 -1.82298 17.2921
rtibia 46.1581
rfoot -22.5871 -15.2087
rtoes -6.37336
lfemur -19.7367 2.63405 -18.9159
ltibia 47.6016
lfoot -27.8754 1.01034
ltoes -3.54073
460
root 4.87308 17.0342 -24.4018 1.89639 -8.4799 -4.15582
lowerback 7.41239 1.50043 -1.45147
upperback 2.19064 1.91607 1.39155
thorax -1.98637 0.954543 2.07639
lowerneck -7.63171 2.5213 -1.19686
upperneck 8.09642 3.58679 -0.714514
head 4.00275 1.69842 0.183239
rclavicle 1.64991e-014 -2.98177e-015
rhumerus -27.6794 3.67704 -78.8166
rradius 43.5366
rwrist -4.59362
rhand -25.951 44.7541
rfingers 7.12502
rthumb 0.593067 14.7751
lclavicle 1.64991e-014 -2.98177e-015
lhumerus -38.1752 3.49202 80.539
lradius 49.4373
lwrist 13.3983
lhand -26.3547 13.5753
lfingers 7.12502
lthumb 0.203162 43.5549
rfemur -27.2989 -2.13578 17.5756
rtibia 47.3485
rfoot -22.1344 -15.5204
rtoes -5.01975
lfemur -19.5443 3.16368 -18.6857
ltibia 47.9133
lfoot -28.1179 1.37646
ltoes -4.4038
461
root 4.88991 17.0098 -24.4019 1.56578 -9.42947 -4.34649
lowerback 7.00075 1.62363 -1.33662
upperback 2.21565 2.09337 1.47057
thorax -1.73949 1.04061 2.0884
lowerneck -7.26497 2.61121 -1.17436
upperneck 8.31898 3.70403 -0.73648
head 4.00949 1.75511 0.174607
rclavicle 1.10325e-014 -7.35503e-015
rhumerus -27.5023 3.56215 -78.5879
rradius 42.7034
rwrist -3.78807
rhand -24.9261 44.5609
rfingers 7.12502
rthumb 1.58297 14.5871
lclavicle 1.10325e-014 -7.35503e-015
lhumerus -38.701 3.79405 80.5062
lradius 49.6949
lwrist 13.2233
lhand -26.034 13.7141
lfingers 7.12502
lthumb 0.512886 43.6933
rfemur -26.6722 -2.25989 17.715
rtibia 48.6031
rfoot -21.9364 -15.1762
rtoes -3.65645
lfemur -19.2065 3.8324 -18.5407
ltibia 48.2214
lfoot -28.3415 1.73899
ltoes -5.77913
462
root 4.90516 16.9858 -24.4004 1.16372 -10.111 -3.97172
lowerback 6.69544 1.69773 -1.59665
upperback 2.11267 2.17451 1.28458
thorax -1.6821 1.08201 2.04251
lowerneck -6.47493 2.62346 -0.95993
upperneck 8.34003 3.68782 -0.762779
head 3.86493 1.75587 0.113806
rclavicle -2.09221e-014 -1.59028e-015
rhumerus -27.6049 3.28931 -78.5257
rradius 42.3196
rwrist -3.27976
rhand -24.9759 45.4555
rfingers 7.12502
rthumb 1.53488 15.4812
lclavicle -2.09221e-014 -1.59028e-015
lhumerus -39.2133 3.90503 80.3954
lradius 49.8658
lwrist 13.4518
lhand -25.4299 13.6193
lfingers 7.12502
lthumb 1.09636 43.5962
rfemur -26.0562 -2.75087 17.2193
rtibia 49.927
rfoot -21.7356 -14.8734
rtoes -4.28824
lfemur -18.9053 4.2797 -19.0128
ltibia 48.501
lfoot -28.5519 2.02545
ltoes -6.80706
463
root 4.9181 16.9679 -24.4044 0.856213 -10.6674 -3.88283
lowerback 6.52303 1.70991 -1.52536
upperback 1.90891 2.19531 1.13256
thorax -1.78862 1.09529 1.84557
lowerneck -5.77795 2.66377 -0.734063
upperneck 8.60278 3.72631 -0.894373
head 3.828 1.77663 0.0235389
rclavicle 7.20594e-015 1.98785e-015
rhumerus -27.8058 3.26793 -78.6028
rradius 42.3929
rwrist -3.29687
rhand -24.6963 44.3386
rfingers 7.12502
rthumb 1.80485 14.3665
lclavicle 7.20594e-015 1.98785e-015
lhumerus -39.7062 4.09387 80.2489
lradius 49.8862
lwrist 13.623
lhand -25.3769 13.5952
lfingers 7.12502
lthumb 1.14757 43.5719
rfemur -25.4864 -3.09405 17.0172
rtibia 51.2996
rfoot -21.418 -15.0804
rtoes -5.40736
lfemur -18.6814 4.63908 -19.1481
ltibia 48.7764
lfoot -28.7134 2.19339
ltoes -7.02773
464
root 4.92832 16.9477 -24.4161 0.455846 -11.1915 -4.09643
lowerback 6.50521 1.65204 -1.38434
upperback 1.78721 2.12993 1.20688
thorax -1.89895 1.06437 1.84681
lowerneck -5.40141 2.86941 -0.877261
upperneck 9.04976 4.01535 -0.874396
head 3.90849 1.91263 0.0675227
rclavicle 4.01048e-014 -5.1684e-015
rhumerus -27.8046 3.48645 -78.5026
rradius 42.4303
rwrist -3.53202
rhand -23.7811 43.3342
rfingers 7.12502
rthumb 2.68873 13.3714
lclavicle 4.01048e-014 -5.1684e-015
lhumerus -40.5486 4.35262 80.0925
lradius 50.2716
lwrist 13.8784
lhand -25.4484 13.3107
lfingers 7.12502
lthumb 1.07849 43.2878
rfemur -24.721 -3.27673 17.1277
rtibia 52.6945
rfoot -21.2502 -15.0289
rtoes -5.18181
lfemur -18.3035 4.88816 -18.8955
ltibia 49.0963
lfoot -28.9398 2.10966
ltoes -6.67317
465
root 4.9447 16.9172 -24.4065 0.0113275 -12.2372 -4.01039
lowerback 6.16643 1.7733 -1.45399
upperback 1.70505 2.29028 1.1709
thorax -1.80314 1.14467 1.8443
lowerneck -4.89234 3.02141 -1.0162
upperneck 9.43864 4.21221 -0.693236
head 3.93795 2.01124 0.155794
rclavicle -5.01186e-014 -8.74653e-015
rhumerus -27.9029 3.67085 -78.4103
rradius 42.268
rwrist -3.41143
rhand -23.7371 43.3085
rfingers 7.12502
rthumb 2.7313 13.3462
lclavicle -5.01186e-014 -8.74653e-015
lhumerus -41.2619 4.69359 79.9764
lradius 50.4599
lwrist 13.9967
lhand -25.5739 12.6906
lfingers 7.12502
lthumb 0.957301 42.6682
rfemur -23.9311 -3.3294 16.835
rtibia 54.05
rfoot -21.0415 -14.5964
rtoes -4.49555
lfemur -17.8355 5.36099 -19.0515
ltibia 49.4936
lfoot -29.4718 2.41114
ltoes -7.11434
466
root 4.95569 16.8808 -24.4048 -0.107911 -13.0797 -3.8281
lowerback 5.60379 1.85992 -1.64651
upperback 1.49327 2.40115 1.10487
thorax -1.71745 1.2021 1.88955
lowerneck -4.233 3.09861 -0.999898
upperneck 9.61534 4.29791 -0.606711
head 3.86862 2.05875 0.174319
rclavicle -1.84621e-014 1.19271e-014
rhumerus -28.0242 3.8531 -78.3918
rradius 42.1454
rwrist -3.19769
rhand -24.2945 43.0474
rfingers 7.12502
rthumb 2.19294 13.0789
lclavicle -1.84621e-014 1.19271e-014
lhumerus -41.6791 5.25668 79.9176
lradius 50.3522
lwrist 13.595
lhand -25.764 12.4093
lfingers 7.12502
lthumb 0.773661 42.3877
rfemur -23.4493 -3.40436 16.4787
rtibia 55.3424
rfoot -20.7931 -14.5166
rtoes -3.09713
lfemur -17.8941 5.7862 -19.3382
ltibia 49.9653
lfoot -29.8514 3.12194
ltoes -9.38793
467
root 4.96586 16.8445 -24.4152 -0.134004 -13.7651 -3.9026
lowerback 5.22831 1.87546 -1.66128
upperback 1.24824 2.42902 1.19067
thorax -1.76565 1.21924 1.99154
lowerneck -4.0533 3.20183 -1.01035
upperneck 10.1001 4.44656 -0.657723
head 4.00653 2.12501 0.168453
rclavicle 6.11263e-015 -2.14687e-014
rhumerus -27.988 3.99473 -78.2262
rradius 42.0348
rwrist -3.26582
rhand -24.4255 42.7676
rfingers 7.12502
rthumb 2.06643 12.7979
lclavicle 6.11263e-015 -2.14687e-014
lhumerus -42.35 5.68292 79.8831
lradius 50.4958
lwrist 13.3889
lhand -25.9196 12.3781
lfingers 7.12502
lthumb 0.623361 42.357
rfemur -22.9798 -3.4554 16.4048
rtibia 56.5453
rfoot -20.3393 -14.3177
rtoes -1.07884
lfemur -18.0835 6.10795 -19.3361
ltibia 50.4546
lfoot -30.1197 3.73053
ltoes -10.8958
468
root 4.98052 16.8159 -24.4079 -0.397923 -14.8623 -4.14022
lowerback 5.0168 2.0191 -1.39697
upperback 1.05477 2.63957 1.27452
thorax -1.84872 1.32589 1.91827
lowerneck -4.14333 3.27993 -0.890964
upperneck 10.9952 4.57149 -0.789887
head 4.35336 2.17473 0.122826
rclavicle -4.14715e-014 -5.1684e-015
rhumerus -27.9098 3.83883 -78.0268
rradius 41.656
rwrist -3.23874
rhand -24.1623 43.1422
rfingers 7.12502
rthumb 2.32064 13.1751
lclavicle -4.14715e-014 -5.1684e-015
lhumerus -43.134 5.81666 79.788
lradius 50.6432
lwrist 13.6072
lhand -25.954 12.1794
lfingers 7.12502
lthumb 0.590187 42.1583
rfemur -22.1882 -3.28374 16.4181
rtibia 57.6195
rfoot -19.5571 -13.8826
rtoes 0.415837
lfemur -17.8198 6.69686 -19.1415
ltibia 50.9043
lfoot -30.5289 4.14815
ltoes -10.6766
469
root 4.98813 16.7923 -24.4053 -0.792167 -15.6265 -4.28691
lowerback 4.69146 2.07479 -1.26658
upperback 1.02879 2.72422 1.30646
thorax -1.69302 1.36683 1.88382
lowerneck -3.8667 3.41344 -0.908867
upperneck 11.4126 4.73699 -0.628961
head 4.44423 2.25977 0.187223
rclavicle 1.03492e-014 -7.95139e-016
rhumerus -27.6316 3.38485 -77.8957
rradius 41.3625
rwrist -3.12538
rhand -23.6722 43.3852
rfingers 7.12502
rthumb 2.79395 13.4238
lclavicle 1.03492e-014 -7.95139e-016
lhumerus -43.5354 6.0211 79.677
lradius 50.679
lwrist 13.787
lhand -25.6983 11.404
lfingers 7.12502
lthumb 0.837133 41.3821
rfemur -21.2058 -3.26458 16.3772
rtibia 58.5171
rfoot -18.2197 -14.1486
rtoes 0.278676
lfemur -17.4161 7.05617 -18.9869
ltibia 51.2758
lfoot -30.868 4.32934
ltoes -10.0673
